<?xml version="1.0" encoding="utf-8"?>
<!-- Generator: Adobe Illustrator 16.0.0, SVG Export Plug-In . SVG Version: 6.00 Build 0)  -->
<!DOCTYPE svg PUBLIC "-//W3C//DTD SVG 1.1//EN" "http://www.w3.org/Graphics/SVG/1.1/DTD/svg11.dtd">
<svg version="1.1" id="Layer_1" xmlns="http://www.w3.org/2000/svg" xmlns:xlink="http://www.w3.org/1999/xlink" x="0px" y="0px"
	 width="40px" height="77.744px" viewBox="0 0 40 77.744" enable-background="new 0 0 40 77.744" xml:space="preserve">
<g>
	<g>
		<g>
			<g>
				<g>
					<path id="SVGID_1_" fill="#CCCCCC" d="M18.41,30.564v7.678c1.785,0,3.705-0.771,5.109-2.177
						c1.404-1.406,2.043-3.325,2.043-5.501H18.41L18.41,30.564z M29.021,8.057c-2.813,0-5.244,0.893-7.285,2.69
						c-2.042-1.784-4.475-2.69-7.167-2.69v7.679c0.771,0,2.043,0.378,2.689,1.148c0.771,0.771,1.15,1.542,1.15,2.177l0,0v10.99
						h7.164V19.182V19.06c0-0.893,0.379-1.663,1.025-2.298c0.635-0.635,1.404-1.026,2.299-1.026l0,0L29.021,8.057L29.021,8.057z
						 M29.279,15.722c0.893,0.122,1.541,0.514,2.176,1.149c0.637,0.635,0.895,1.406,0.895,2.298s-0.381,1.663-1.025,2.433
						c-0.639,0.637-1.406,1.028-2.438,1.028H25.82v7.678h3.188c3.07,0,5.625-1.148,7.801-3.325C38.986,24.806,40,22.251,40,19.182
						c0-2.946-1.029-5.624-3.191-7.678c-2.041-2.176-4.607-3.326-7.678-3.326L29.279,15.722L29.279,15.722z"/>
				</g>
				<g>
					<g>
						<g>
							<g>
								<g>
									<path id="SVGID_2_" fill="#CCCCCC" d="M18.41,30.564v7.678c1.785,0,3.705-0.771,5.109-2.177
										c1.404-1.406,2.043-3.325,2.043-5.501H18.41L18.41,30.564z M29.021,8.057c-2.813,0-5.244,0.893-7.285,2.69
										c-2.042-1.784-4.475-2.69-7.167-2.69v7.679c0.771,0,2.043,0.378,2.689,1.148c0.771,0.771,1.15,1.542,1.15,2.177l0,0v10.99
										h7.164V19.182V19.06c0-0.893,0.379-1.663,1.025-2.298c0.635-0.635,1.404-1.026,2.299-1.026l0,0L29.021,8.057L29.021,8.057z
										 M29.279,15.722c0.893,0.122,1.541,0.514,2.176,1.149c0.637,0.635,0.895,1.406,0.895,2.298s-0.381,1.663-1.025,2.433
										c-0.639,0.637-1.406,1.028-2.438,1.028H25.82v7.678h3.188c3.07,0,5.625-1.148,7.801-3.325
										C38.986,24.806,40,22.251,40,19.182c0-2.946-1.029-5.624-3.191-7.678c-2.041-2.176-4.607-3.326-7.678-3.326L29.279,15.722
										L29.279,15.722z"/>
								</g>
								<g>
									<g>
										<path id="SVGID_4_" fill="#CCCCCC" d="M18.41,30.564v7.678c1.785,0,3.705-0.771,5.109-2.177
											c1.404-1.406,2.043-3.325,2.043-5.501H18.41L18.41,30.564z M29.021,8.057c-2.813,0-5.244,0.893-7.285,2.69
											c-2.042-1.784-4.475-2.69-7.167-2.69v7.679c0.771,0,2.043,0.378,2.689,1.148c0.771,0.771,1.15,1.542,1.15,2.177l0,0v10.99
											h7.164V19.182V19.06c0-0.893,0.379-1.663,1.025-2.298c0.635-0.635,1.404-1.026,2.299-1.026l0,0L29.021,8.057L29.021,8.057
											z M29.279,15.722c0.893,0.122,1.541,0.514,2.176,1.149c0.637,0.635,0.895,1.406,0.895,2.298s-0.381,1.663-1.025,2.433
											c-0.639,0.637-1.406,1.028-2.438,1.028H25.82v7.678h3.188c3.07,0,5.625-1.148,7.801-3.325
											C38.986,24.806,40,22.251,40,19.182c0-2.946-1.029-5.624-3.191-7.678c-2.041-2.176-4.607-3.326-7.678-3.326L29.279,15.722
											L29.279,15.722z"/>
									</g>
									<g>
										<defs>
											<path id="SVGID_6_" d="M18.41,30.564v7.678c1.785,0,3.705-0.771,5.109-2.177c1.404-1.406,2.043-3.325,2.043-5.501H18.41
												L18.41,30.564z M29.021,8.057c-2.813,0-5.244,0.893-7.285,2.69c-2.042-1.784-4.475-2.69-7.167-2.69v7.679
												c0.771,0,2.043,0.378,2.689,1.148c0.771,0.771,1.15,1.542,1.15,2.177l0,0v10.99h7.164V19.182V19.06
												c0-0.893,0.379-1.663,1.025-2.298c0.635-0.635,1.404-1.026,2.299-1.026l0,0L29.021,8.057L29.021,8.057z M29.279,15.722
												c0.893,0.122,1.541,0.514,2.176,1.149c0.637,0.635,0.895,1.406,0.895,2.298s-0.381,1.663-1.025,2.433
												c-0.639,0.637-1.406,1.028-2.438,1.028H25.82v7.678h3.188c3.07,0,5.625-1.148,7.801-3.325
												C38.986,24.806,40,22.251,40,19.182c0-2.946-1.029-5.624-3.191-7.678c-2.041-2.176-4.607-3.326-7.678-3.326
												L29.279,15.722L29.279,15.722z"/>
										</defs>
										<use xlink:href="#SVGID_6_"  overflow="visible" fill="#CCCCCC"/>
										<clipPath id="SVGID_8_">
											<use xlink:href="#SVGID_6_"  overflow="visible"/>
										</clipPath>
										<rect x="14.449" y="8.057" clip-path="url(#SVGID_8_)" fill="#CCCCCC" width="25.576" height="30.173"/>
									</g>
								</g>
							</g>
						</g>
					</g>
				</g>
			</g>
		</g>
		<g>
			<g>
				<g>
					<path id="SVGID_3_" fill="#CCCCCC" d="M10.99,8.057c-3.07,0-5.625,1.149-7.801,3.326C1.012,13.559,0,16.114,0,19.061
						c0,3.068,1.027,5.625,3.189,7.801c2.041,2.176,4.609,3.324,7.678,3.324v-7.678c-0.893-0.122-1.541-0.514-2.176-1.148
						c-0.637-0.636-1.027-1.406-1.027-2.298c0-0.894,0.379-1.785,1.027-2.435c0.648-0.648,1.404-1.027,2.297-1.027h3.068V7.922
						h-3.068v0.135H10.99z M14.449,8.057v10.99v0.122c0,0.893-0.377,1.663-1.027,2.298c-0.635,0.635-1.404,1.027-2.297,1.027l0,0
						v7.678l0,0c2.813,0,5.244-0.893,7.285-2.812c2.176,1.784,4.475,2.812,7.164,2.812v-7.678c-0.891,0-1.662-0.378-2.297-1.149
						c-0.635-0.77-1.027-1.541-1.148-2.298l0,0V8.057H14.449z M16.627,2.176c-1.406,1.406-2.043,3.326-2.178,5.502h7.68V0
						C19.816,0,18.033,0.771,16.627,2.176"/>
				</g>
				<g>
					<g>
						<g>
							<g>
								<g>
									<path id="SVGID_5_" fill="#CCCCCC" d="M10.99,8.057c-3.07,0-5.625,1.149-7.801,3.326C1.012,13.559,0,16.114,0,19.061
										c0,3.068,1.027,5.625,3.189,7.801c2.041,2.176,4.609,3.324,7.678,3.324v-7.678c-0.893-0.122-1.541-0.514-2.176-1.148
										c-0.637-0.636-1.027-1.406-1.027-2.298c0-0.894,0.379-1.785,1.027-2.435c0.648-0.648,1.404-1.027,2.297-1.027h3.068V7.922
										h-3.068v0.135H10.99z M14.449,8.057v10.99v0.122c0,0.893-0.377,1.663-1.027,2.298c-0.635,0.635-1.404,1.027-2.297,1.027
										l0,0v7.678l0,0c2.813,0,5.244-0.893,7.285-2.812c2.176,1.784,4.475,2.812,7.164,2.812v-7.678
										c-0.891,0-1.662-0.378-2.297-1.149c-0.635-0.77-1.027-1.541-1.148-2.298l0,0V8.057H14.449z M16.627,2.176
										c-1.406,1.406-2.043,3.326-2.178,5.502h7.68V0C19.816,0,18.033,0.771,16.627,2.176"/>
								</g>
								<g>
									<g>
										<path id="SVGID_7_" fill="#CCCCCC" d="M10.99,8.057c-3.07,0-5.625,1.149-7.801,3.326C1.012,13.559,0,16.114,0,19.061
											c0,3.068,1.027,5.625,3.189,7.801c2.041,2.176,4.609,3.324,7.678,3.324v-7.678c-0.893-0.122-1.541-0.514-2.176-1.148
											c-0.637-0.636-1.027-1.406-1.027-2.298c0-0.894,0.379-1.785,1.027-2.435c0.648-0.648,1.404-1.027,2.297-1.027h3.068V7.922
											h-3.068v0.135H10.99z M14.449,8.057v10.99v0.122c0,0.893-0.377,1.663-1.027,2.298c-0.635,0.635-1.404,1.027-2.297,1.027
											l0,0v7.678l0,0c2.813,0,5.244-0.893,7.285-2.812c2.176,1.784,4.475,2.812,7.164,2.812v-7.678
											c-0.891,0-1.662-0.378-2.297-1.149c-0.635-0.77-1.027-1.541-1.148-2.298l0,0V8.057H14.449z M16.627,2.176
											c-1.406,1.406-2.043,3.326-2.178,5.502h7.68V0C19.816,0,18.033,0.771,16.627,2.176"/>
									</g>
									<g>
										<defs>
											<path id="SVGID_9_" d="M10.99,8.057c-3.07,0-5.625,1.149-7.801,3.326C1.012,13.559,0,16.114,0,19.061
												c0,3.068,1.027,5.625,3.189,7.801c2.041,2.176,4.609,3.324,7.678,3.324v-7.678c-0.893-0.122-1.541-0.514-2.176-1.148
												c-0.637-0.636-1.027-1.406-1.027-2.298c0-0.894,0.379-1.785,1.027-2.435c0.648-0.648,1.404-1.027,2.297-1.027h3.068
												V7.922h-3.068v0.135H10.99z M14.449,8.057v10.99v0.122c0,0.893-0.377,1.663-1.027,2.298
												c-0.635,0.635-1.404,1.027-2.297,1.027l0,0v7.678l0,0c2.813,0,5.244-0.893,7.285-2.812
												c2.176,1.784,4.475,2.812,7.164,2.812v-7.678c-0.891,0-1.662-0.378-2.297-1.149c-0.635-0.77-1.027-1.541-1.148-2.298l0,0
												V8.057H14.449z M16.627,2.176c-1.406,1.406-2.043,3.326-2.178,5.502h7.68V0C19.816,0,18.033,0.771,16.627,2.176"/>
										</defs>
										<use xlink:href="#SVGID_9_"  overflow="visible" fill="#CCCCCC"/>
										<clipPath id="SVGID_10_">
											<use xlink:href="#SVGID_9_"  overflow="visible"/>
										</clipPath>
										<rect x="-0.002" clip-path="url(#SVGID_10_)" fill="#CCCCCC" width="25.576" height="30.172"/>
									</g>
								</g>
							</g>
						</g>
					</g>
				</g>
			</g>
		</g>
	</g>
	<g>
		<g>
			<g>
				<g>
					<g>
						<g>
							<g>
								<g>
									<g>
										<defs>
											<path id="SVGID_11_" d="M18.41,70.065v7.679c1.785,0,3.705-0.771,5.109-2.177s2.043-3.325,2.043-5.502H18.41
												L18.41,70.065z M29.021,47.571c-2.813,0-5.244,0.892-7.285,2.688c-2.042-1.783-4.475-2.688-7.167-2.688v7.679
												c0.771,0,2.043,0.378,2.689,1.149c0.771,0.771,1.15,1.541,1.15,2.176l0,0v10.99h7.164v-10.99v-0.122
												c0-0.892,0.379-1.663,1.025-2.298c0.635-0.635,1.404-1.027,2.299-1.027l0,0L29.021,47.571L29.021,47.571L29.021,47.571z
												 M29.279,55.235c0.893,0.123,1.541,0.515,2.176,1.147c0.637,0.638,0.895,1.406,0.895,2.3c0,0.893-0.381,1.66-1.025,2.434
												c-0.639,0.636-1.406,1.025-2.438,1.025H25.82v7.681h3.188c3.07,0,5.625-1.149,7.801-3.325
												c2.178-2.178,3.191-4.73,3.191-7.8c0-2.947-1.029-5.624-3.191-7.679c-2.041-2.178-4.607-3.324-7.678-3.324L29.279,55.235
												L29.279,55.235z"/>
										</defs>
										<clipPath id="SVGID_12_">
											<use xlink:href="#SVGID_11_"  overflow="visible"/>
										</clipPath>
										
											<radialGradient id="SVGID_13_" cx="-1691.479" cy="-622.8975" r="0.03" gradientTransform="matrix(1048.9801 0 0 1048.9801 1774355.25 653455.75)" gradientUnits="userSpaceOnUse">
											<stop  offset="0" style="stop-color:#E39826"/>
											<stop  offset="1" style="stop-color:#DD5D26"/>
										</radialGradient>
										<rect x="14.449" y="47.571" clip-path="url(#SVGID_12_)" fill="url(#SVGID_13_)" width="25.576" height="30.173"/>
									</g>
								</g>
							</g>
						</g>
					</g>
				</g>
			</g>
		</g>
		<g>
			<g>
				<g>
					<g>
						<g>
							<g>
								<g>
									<g>
										<defs>
											<path id="SVGID_14_" d="M10.99,47.571c-3.07,0-5.625,1.146-7.801,3.326C1.012,52.938,0,55.628,0,58.575
												c0,3.066,1.027,5.623,3.189,7.8c2.041,2.177,4.61,3.325,7.678,3.325v-7.678c-0.893-0.123-1.541-0.517-2.176-1.149
												c-0.637-0.636-1.027-1.406-1.027-2.176c0-0.895,0.379-1.784,1.027-2.435c0.648-0.647,1.404-1.025,2.297-1.025h3.068
												V47.56h-3.068v0.014L10.99,47.571L10.99,47.571z M14.449,47.571v10.99v0.121c0,0.893-0.377,1.66-1.027,2.299
												c-0.635,0.636-1.404,1.024-2.297,1.024l0,0v7.681l0,0c2.813,0,5.244-0.895,7.285-2.813
												c2.176,1.784,4.475,2.813,7.164,2.813v-7.681c-0.891,0-1.662-0.379-2.297-1.147c-0.635-0.771-1.027-1.541-1.148-2.297
												l0,0V47.437L14.449,47.571L14.449,47.571z M16.627,41.69c-1.406,1.403-2.043,3.324-2.178,5.502h7.68v-7.68
												C19.816,39.515,18.033,40.285,16.627,41.69"/>
										</defs>
										<clipPath id="SVGID_15_">
											<use xlink:href="#SVGID_14_"  overflow="visible"/>
										</clipPath>
										
											<radialGradient id="SVGID_16_" cx="-1690.9082" cy="-622.8955" r="0.0309" gradientTransform="matrix(1057.967 0 0 1057.967 1788935.125 659050.5625)" gradientUnits="userSpaceOnUse">
											<stop  offset="0" style="stop-color:#01A2CF"/>
											<stop  offset="1" style="stop-color:#005D9A"/>
										</radialGradient>
										<rect x="-0.002" y="39.515" clip-path="url(#SVGID_15_)" fill="url(#SVGID_16_)" width="25.576" height="30.174"/>
									</g>
								</g>
							</g>
						</g>
					</g>
				</g>
			</g>
		</g>
	</g>
</g>
</svg>
