<?xml version="1.0" encoding="utf-8"?>
<!-- Generator: Adobe Illustrator 16.0.0, SVG Export Plug-In . SVG Version: 6.00 Build 0)  -->
<!DOCTYPE svg PUBLIC "-//W3C//DTD SVG 1.1//EN" "http://www.w3.org/Graphics/SVG/1.1/DTD/svg11.dtd">
<svg version="1.1" id="Camada_1" xmlns="http://www.w3.org/2000/svg" xmlns:xlink="http://www.w3.org/1999/xlink" x="0px" y="0px"
	 width="187.062px" height="200.003px" viewBox="190.616 246.164 187.062 200.003"
	 enable-background="new 190.616 246.164 187.062 200.003" xml:space="preserve">
<path fill="#87A2C3" d="M297.872,263.725c24.188,14.373,45.835,31.871,64.611,52.854c5.428,6.065,9.839,12.799,12.688,20.5
	c4.134,11.17,3.06,21.905-2.542,32.272c-5.517,10.213-13.579,18.265-22.476,25.445c-18.723,15.113-38.465,28.742-60.129,39.359
	c-14.362,7.039-29.387,11.891-45.59,12.008c-8.311,0.061-16.533-0.693-23.929-4.961c-9.386-5.412-15.093-13.908-19.241-23.631
	c-5.465-12.801-7.646-26.354-9.1-40.06c-2.573-24.266-2.161-48.428,2.906-72.389c2.703-12.771,6.604-25.166,12.769-36.711
	c8.136-15.232,21.183-22.336,38.279-22.248c10.759,0.057,20.896,3.008,30.752,7.035
	C284.137,256.169,291.121,259.718,297.872,263.725z"/>
</svg>
