<?xml version="1.0" encoding="utf-8"?>
<!-- Generator: Adobe Illustrator 16.0.0, SVG Export Plug-In . SVG Version: 6.00 Build 0)  -->
<!DOCTYPE svg PUBLIC "-//W3C//DTD SVG 1.1//EN" "http://www.w3.org/Graphics/SVG/1.1/DTD/svg11.dtd">
<svg version="1.1" id="Camada_1" xmlns="http://www.w3.org/2000/svg" xmlns:xlink="http://www.w3.org/1999/xlink" x="0px" y="0px"
	 width="200px" height="187.06px" viewBox="184.149 252.638 200 187.06" enable-background="new 184.149 252.638 200 187.06"
	 xml:space="preserve">
<path fill="#87A2C3" d="M201.707,332.443c14.373-24.189,31.87-45.835,52.854-64.611c6.066-5.428,12.798-9.839,20.5-12.69
	c11.169-4.133,21.906-3.058,32.273,2.542c10.212,5.517,18.263,13.579,25.445,22.476c15.114,18.722,28.742,38.465,39.36,60.128
	c7.039,14.363,11.889,29.388,12.006,45.591c0.061,8.309-0.692,16.533-4.959,23.928c-5.414,9.385-13.91,15.092-23.632,19.242
	c-12.801,5.464-26.354,7.646-40.058,9.098c-24.266,2.574-48.428,2.162-72.388-2.906c-12.771-2.704-25.167-6.603-36.711-12.768
	c-15.233-8.135-22.337-21.183-22.248-38.28c0.055-10.759,3.007-20.894,7.035-30.752
	C194.151,346.178,197.699,339.194,201.707,332.443z"/>
</svg>
